<?xml version="1.0" encoding="UTF-8" standalone="no"?>
<svg
   xmlns:dc="http://purl.org/dc/elements/1.1/"
   xmlns:cc="http://creativecommons.org/ns#"
   xmlns:rdf="http://www.w3.org/1999/02/22-rdf-syntax-ns#"
   xmlns:svg="http://www.w3.org/2000/svg"
   xmlns="http://www.w3.org/2000/svg"
   xmlns:sodipodi="http://sodipodi.sourceforge.net/DTD/sodipodi-0.dtd"
   xmlns:inkscape="http://www.inkscape.org/namespaces/inkscape"
   height="48"
   width="48"
   version="1.1"
   id="svg12"
   sodipodi:docname="drag.svg"
   inkscape:version="1.0.1 (c497b03c, 2020-09-10)">
  <metadata
     id="metadata18">
    <rdf:RDF>
      <cc:Work
         rdf:about="">
        <dc:format>image/svg+xml</dc:format>
        <dc:type
           rdf:resource="http://purl.org/dc/dcmitype/StillImage" />
      </cc:Work>
    </rdf:RDF>
  </metadata>
  <defs
     id="defs16" />
  <sodipodi:namedview
     pagecolor="#ffffff"
     bordercolor="#666666"
     borderopacity="1"
     objecttolerance="10"
     gridtolerance="10"
     guidetolerance="10"
     inkscape:pageopacity="0"
     inkscape:pageshadow="2"
     inkscape:window-width="1091"
     inkscape:window-height="1098"
     id="namedview14"
     showgrid="false"
     inkscape:zoom="21"
     inkscape:cx="24"
     inkscape:cy="24"
     inkscape:window-x="0"
     inkscape:window-y="23"
     inkscape:window-maximized="0"
     inkscape:current-layer="svg12" />
  <path
     d="M17.05 41.15q-1.7 0-2.95-1.225-1.25-1.225-1.25-2.975t1.225-2.975Q15.3 32.75 17.05 32.75t2.975 1.225Q21.25 35.2 21.25 36.95t-1.225 2.975Q18.8 41.15 17.05 41.15Zm13.9 0q-1.75 0-2.975-1.225T26.75 36.95q0-1.75 1.225-2.975t2.975-1.225q1.75 0 2.975 1.225t1.225 2.975q0 1.75-1.225 2.975T30.95 41.15Zm-13.9-13q-1.7 0-2.95-1.2-1.25-1.2-1.25-3 0-1.7 1.225-2.925Q15.3 19.8 17.05 19.8t2.975 1.225q1.225 1.225 1.225 2.925 0 1.8-1.225 3t-2.975 1.2Zm13.9 0q-1.75 0-2.975-1.2t-1.225-3q0-1.7 1.225-2.925Q29.2 19.8 30.95 19.8t2.975 1.225q1.225 1.225 1.225 2.925 0 1.8-1.225 3t-2.975 1.2ZM17.05 15.2q-1.7 0-2.95-1.225Q12.85 12.75 12.85 11q0-1.7 1.225-2.925Q15.3 6.85 17.05 6.85t2.975 1.25q1.225 1.25 1.225 2.95 0 1.7-1.225 2.925Q18.8 15.2 17.05 15.2Zm13.9 0q-1.75 0-2.975-1.225T26.75 11q0-1.7 1.225-2.925Q29.2 6.85 30.95 6.85t2.975 1.25q1.225 1.25 1.225 2.95 0 1.7-1.225 2.925Q32.7 15.2 30.95 15.2Z"
     id="path10"
     style="fill:#202020;fill-opacity:1" />
</svg>
